<svg width="50.000000" height="62.000000" viewBox="0 0 50 62" fill="none" xmlns="http://www.w3.org/2000/svg" xmlns:xlink="http://www.w3.org/1999/xlink">
	<desc>
			Created with Pixso.
	</desc>
	<defs/>
	<g opacity="0.135393">
		<path id="Vector" d="M50 30.2C50 47.32 38.8 61.2 25 61.2C11.19 61.2 0 47.32 0 30.2C0 13.08 11.19 -0.8 25 -0.8C38.8 -0.8 50 13.08 50 30.2Z" fill="#7E5FFF" fill-opacity="1.000000" fill-rule="evenodd"/>
	</g>
	<path id="Vector" d="M39.06 30.2C39.06 39.83 32.76 47.64 25 47.64C17.23 47.64 10.93 39.83 10.93 30.2C10.93 20.57 17.23 12.76 25 12.76C32.76 12.76 39.06 20.57 39.06 30.2Z" fill="#7E5FFF" fill-opacity="1.000000" fill-rule="evenodd"/>
	<path id="Vector" d="M26.23 35.78L26.23 31.15L29.64 31.15L29.64 28.41L26.23 28.41L26.23 23.78L23.85 23.78L23.85 28.41L20.35 28.41L20.35 31.15L23.85 31.15L23.85 35.78L26.23 35.78Z" fill="#FFFFFF" fill-opacity="1.000000" fill-rule="nonzero"/>
</svg>
